<?xml version="1.0" encoding="UTF-8" standalone="no"?>
<svg
   xmlnsDc="http://purl.org/dc/elements/1.1/"
   xmlnsCc="http://creativecommons.org/ns#"
   xmlnsRdf="http://www.w3.org/1999/02/22-rdf-syntax-ns#"
   xmlnsSvg="http://www.w3.org/2000/svg"
   xmlns="http://www.w3.org/2000/svg"
   version="1.1"
   id="svg2"
   viewBox="0 0 726.37794 170.07864"
   height="48mm"
   width="205mm">
  <defs
     id="defs4" />
  <metadata
     id="metadata7">
    <rdfRDF>
      <ccWork
         rdfAbout="">
        <dcFormat>image/svg+xml</dcFormat>
        <dcType
           rdfResource="http://purl.org/dc/dcmitype/StillImage" />
        <dcTitle></dcTitle>
      </ccWork>
    </rdfRDF>
  </metadata>
  <g
     transform="translate(0,-882.28411)"
     id="layer5">
    <path
       d="M 154.85638,965.03461 A 71.771339,71.771339 0 0 1 83.106027,1036.8059 71.771339,71.771339 0 0 1 11.313718,965.07657 71.771339,71.771339 0 0 1 83.022097,893.2633 71.771339,71.771339 0 0 1 154.85634,964.95068"
       id="path3481"
       style="fill:#000000;fill-opacity:1" />
  </g>
  <g
     transform="translate(0,-882.28411)"
     style="display:inline"
     id="layer2">
    <path
       id="path3402"
       d="m 84.325341,885.5858 a 82.074898,82.074898 0 0 0 -82.001954,82.12305 82.074898,82.074898 0 0 0 82.09961,82.02735 82.074898,82.074898 0 0 0 82.050773,-82.07618 l 0,-0.0957 A 82.074898,82.074898 0 0 0 84.325341,885.5858 Z m -0.375,17.54101 a 64.285713,64.285713 0 0 1 64.343749,64.21094 l 0,0.0742 A 64.285713,64.285713 0 0 1 84.026513,1031.6971 64.285713,64.285713 0 0 1 19.721825,967.44908 64.285713,64.285713 0 0 1 83.950341,903.12681 Z"
       style="fill:#ffce35;fill-opacity:1" />
  </g>
  <g
     transform="translate(0,-882.28411)"
     style="display:inline"
     id="layer4">
    <text
       transform="matrix(0.70710678,-0.70710678,0.70710678,0.70710678,0,0)"
       id="text3351"
       y="773.35864"
       x="-678.35767"
       style="font-style:normal;font-weight:normal;font-size:133.71968079px;line-height:125%;font-family:sans-serif;letter-spacing:0px;word-spacing:0px;fill:#ffffff;fill-opacity:1;stroke:none;stroke-width:1px;stroke-linecap:butt;stroke-linejoin:miter;stroke-opacity:1"
       xmlSpace="preserve"><tspan
         id="tspan3353"
         y="773.35864"
         x="-678.35767"><tspan
           id="tspan3355"
           style="font-style:normal;font-variant:normal;font-weight:bold;font-stretch:normal;font-family:'Myriad Hebrew';-inkscape-font-specification:'Myriad Hebrew Bold';fill:#ffffff"
           y="773.35864"
           x="-678.35767">m</tspan></tspan></text>
    <text
       id="text3345"
       y="1000.2548"
       x="185.57381"
       style="font-style:normal;font-weight:normal;font-size:127.30638123px;line-height:125%;font-family:sans-serif;letter-spacing:0px;word-spacing:0px;fill:#000000;fill-opacity:1;stroke:none;stroke-width:1px;stroke-linecap:butt;stroke-linejoin:miter;stroke-opacity:1"
       xmlSpace="preserve"><tspan
         id="tspan3347"
         y="1000.2548"
         x="185.57381"><tspan
           id="tspan3349"
           style="font-style:normal;font-variant:normal;font-weight:bold;font-stretch:normal;font-family:'Myriad Hebrew';-inkscape-font-specification:'Myriad Hebrew Bold';letter-spacing:-3.28275895px;fill:#000000"
           y="1000.2548"
           x="185.57381">metacritic</tspan></tspan></text>
  </g>
</svg>
